<svg xmlns="http://www.w3.org/2000/svg" xmlns:xlink="http://www.w3.org/1999/xlink" width="1080" zoomAndPan="magnify" viewBox="0 0 810 809.999993" height="1080" preserveAspectRatio="xMidYMid meet" version="1.0"><defs><clipPath id="d1f33a19c9"><path d="M 0 202.5 L 557 202.5 L 557 607.5 L 0 607.5 Z M 0 202.5 " clip-rule="nonzero"/></clipPath><clipPath id="1b744fe0af"><path d="M 253 202.5 L 810 202.5 L 810 607.5 L 253 607.5 Z M 253 202.5 " clip-rule="nonzero"/></clipPath></defs><g clip-path="url(#d1f33a19c9)"><path fill="#ffffff" d="M 354.375 303.75 L 202.5 303.75 C 146.582031 303.75 101.25 349.082031 101.25 405 C 101.25 460.917969 146.582031 506.25 202.5 506.25 L 202.5 607.5 C 90.664062 607.5 0 516.835938 0 405 C 0 293.164062 90.664062 202.5 202.5 202.5 L 354.375 202.5 C 466.210938 202.5 556.875 293.164062 556.875 405 L 556.875 455.625 L 455.625 455.625 L 455.625 405 C 455.625 349.082031 410.292969 303.75 354.375 303.75 Z M 354.375 303.75 " fill-opacity="1" fill-rule="evenodd"/></g><g clip-path="url(#1b744fe0af)"><path fill="#ffffff" d="M 455.625 506.25 L 607.5 506.25 C 663.417969 506.25 708.75 460.917969 708.75 405 C 708.75 349.082031 663.417969 303.75 607.5 303.75 L 607.5 202.5 C 719.335938 202.5 810 293.164062 810 405 C 810 516.835938 719.335938 607.5 607.5 607.5 L 455.625 607.5 C 343.789062 607.5 253.125 516.835938 253.125 405 L 253.125 354.375 L 354.375 354.375 L 354.375 405 C 354.375 460.917969 399.707031 506.25 455.625 506.25 Z M 455.625 506.25 " fill-opacity="1" fill-rule="evenodd"/></g></svg>